# xmcd
#
# Track frame offsets:
#	150
#	13337
#	31976
#	42755
#	55201
#	70580
#	82098
#	93181
#	103639
#	116579
#	129595
#	143855
#	157753
#	175626
#	189047
#	203586
#
# Disc length: 3021 seconds
#
# Revision: 1
# Processed by: cddbd v1.5.2PL0 Copyright (c) Steve Scherf et al.
# Submitted via: audiograbber 1.83.01
#
DISCID=c50bcb10
DTITLE=Gusttavo Lima - buteco do Gusttavo Lima - Buteco do Gusttavo Lima
DYEAR=2013
DGENRE=Country
TTITLE0=borbulhas de amor
TTITLE1=menina da aldeia
TTITLE2=hoje eu quero te amar
TTITLE3=esse amor que me mata - part washington luiz e fabiano
TTITLE4=não vivo sem você - part washington luiz e fabiano
TTITLE5=pra te abraçar
TTITLE6=assino com x
TTITLE7=pense em mim
TTITLE8=página de amigos
TTITLE9=calafrio
TTITLE10=tá faltando eu
TTITLE11=fui fiel
TTITLE12=diz pra mim
TTITLE13=doidaça - vs villa mix
TTITLE14=el inventor de amores
TTITLE15=necesita ser amado
EXTD=
EXTT0=
EXTT1=
EXTT2=
EXTT3=
EXTT4=
EXTT5=
EXTT6=
EXTT7=
EXTT8=
EXTT9=
EXTT10=
EXTT11=
EXTT12=
EXTT13=
EXTT14=
EXTT15=
PLAYORDER=
